<svg width="52" height="52" viewBox="0 0 52 52" fill="none" xmlns="http://www.w3.org/2000/svg">
<circle opacity="0.8" cx="26" cy="26" r="26" fill="#F8E9FC"/>
<path d="M26.6783 28.4789L24.5908 30.5663C24.1508 31.0064 23.4512 31.0064 22.9998 30.5776C22.8757 30.4535 22.7516 30.3406 22.6275 30.2165C21.4653 29.043 20.4159 27.8131 19.4794 26.5268C18.5541 25.2405 17.8094 23.9542 17.2678 22.6791C16.7375 21.3928 16.4667 20.1629 16.4667 18.9894C16.4667 18.2221 16.6021 17.4887 16.8729 16.8117C17.1437 16.1234 17.5725 15.4915 18.1705 14.9273C18.8926 14.2165 19.6825 13.8667 20.5175 13.8667C20.8334 13.8667 21.1493 13.9344 21.4314 14.0698C21.7248 14.2052 21.9843 14.4083 22.1874 14.7017L24.8052 18.3914C25.0083 18.6735 25.155 18.933 25.2566 19.1812C25.3581 19.4182 25.4145 19.6551 25.4145 19.8695C25.4145 20.1403 25.3355 20.4111 25.1776 20.6706C25.0309 20.9302 24.8165 21.201 24.5457 21.4718L23.6881 22.3632C23.564 22.4873 23.5076 22.634 23.5076 22.8145C23.5076 22.9048 23.5189 22.9838 23.5415 23.074C23.5753 23.1643 23.6092 23.232 23.6317 23.2997C23.8348 23.6721 24.1846 24.1573 24.6811 24.744C25.1888 25.3307 25.7305 25.9288 26.3172 26.5268C26.43 26.6396 26.5542 26.7525 26.667 26.8653C27.1183 27.3054 27.1296 28.0275 26.6783 28.4789Z" fill="#EF272C"/>
<path opacity="0.5" d="M39 32.2928C39 32.6087 38.9436 32.9359 38.8307 33.2519C38.7969 33.3421 38.763 33.4324 38.7179 33.5227C38.5261 33.9289 38.2778 34.3125 37.9506 34.6736C37.3977 35.2829 36.7884 35.723 36.1001 36.005C36.0888 36.005 36.0775 36.0163 36.0663 36.0163C35.4005 36.2871 34.6784 36.4338 33.8998 36.4338C32.7489 36.4338 31.519 36.163 30.2214 35.6101C28.9238 35.0572 27.6262 34.3125 26.3398 33.376C25.8998 33.0488 25.4597 32.7215 25.0422 32.3717L28.732 28.682C29.0479 28.919 29.33 29.0995 29.5669 29.2236C29.6234 29.2462 29.6911 29.2801 29.77 29.3139C29.8603 29.3478 29.9506 29.359 30.0521 29.359C30.2439 29.359 30.3906 29.2913 30.5148 29.1672L31.3723 28.321C31.6544 28.0389 31.9252 27.8245 32.1847 27.6891C32.4442 27.5311 32.7038 27.4521 32.9858 27.4521C33.2002 27.4521 33.4259 27.4973 33.6741 27.5988C33.9224 27.7004 34.1819 27.847 34.464 28.0389L38.1988 30.6905C38.4922 30.8936 38.6953 31.1306 38.8194 31.4126C38.9323 31.6947 39 31.9768 39 32.2928Z" fill="#EF272C"/>
</svg>
