<svg width="52" height="52" viewBox="0 0 52 52" fill="none" xmlns="http://www.w3.org/2000/svg">
<circle cx="26" cy="26" r="26" fill="#FDE7E9"/>
<path opacity="0.9" d="M25.0766 25.9261C28.287 25.9261 30.8896 23.3236 30.8896 20.1132C30.8896 16.9028 28.287 14.3002 25.0766 14.3002C21.8662 14.3002 19.2637 16.9028 19.2637 20.1132C19.2637 23.3236 21.8662 25.9261 25.0766 25.9261Z" fill="#1F2731"/>
<path opacity="0.6" d="M25.0767 28.8327C19.2521 28.8327 14.5087 32.739 14.5087 37.5521C14.5087 37.8776 14.7645 38.1334 15.09 38.1334H35.0633C35.3888 38.1334 35.6446 37.8776 35.6446 37.5521C35.6446 32.739 30.9012 28.8327 25.0767 28.8327Z" fill="#1F2731"/>
<path opacity="0.9" d="M36.0398 29.1116C34.9935 28.0653 34.1681 28.4025 33.4589 29.1116L29.3433 33.2272C29.1805 33.39 29.0294 33.6922 28.9945 33.9131L28.7736 35.4826C28.6923 36.0522 29.0876 36.4475 29.6572 36.3662L31.2267 36.1453C31.4476 36.1104 31.7615 35.9593 31.9126 35.7965L36.0282 31.681C36.749 30.9834 37.0861 30.158 36.0398 29.1116Z" fill="#1F2731"/>
</svg>
